<?xml version="1.0" encoding="UTF-8"?>
<svg id="Layer_2" data-name="Layer 2" xmlns="http://www.w3.org/2000/svg" viewBox="0 0 960 400.43">
  <defs>
    <style>
      .cls-1 {
        fill: #d0234c;
      }

      .cls-2 {
        fill: #fff;
      }

      .cls-3 {
        fill: #f66717;
      }

      .cls-4 {
        fill: #753c9e;
      }
    </style>
  </defs>
  <g id="Artwork">
    <path class="cls-4" d="M480,37.22c-23.53-.01-47.25,5.19-68.69,15.18-21.5,9.91-40.59,24.69-55.84,42.68-15.29,17.97-26.5,39.45-32.73,62.28-3.11,11.42-4.99,23.17-5.54,34.94-.55,11.75.14,23.57,2.12,35.24,3.95,23.31,13.02,45.82,26.5,65.21,13.45,19.39,31.01,35.94,51.41,47.89,20.34,12,43.41,19.59,66.93,21.81,2.94.21,5.88.51,8.82.6l4.41.12,2.21.05h1.8s13.67,0,13.67,0h464.92v37.22h-480.47s-2.7-.06-2.7-.06l-5.41-.14c-3.6-.12-7.22-.47-10.82-.74-28.88-2.73-57.29-12.05-82.27-26.8-25.06-14.7-46.61-34.96-63.12-58.79-16.54-23.81-27.73-51.49-32.58-80.15-2.43-14.34-3.28-28.83-2.6-43.23.67-14.43,2.98-28.89,6.8-42.93,7.66-28.09,21.46-54.46,40.22-76.53,18.71-22.09,42.15-40.2,68.57-52.41,13.18-6.12,27.06-10.82,41.27-13.95C451.08,1.57,465.6,0,480,0v37.22Z"/>
    <path class="cls-1" d="M480,74.44c-18.24,0-36.45,4.02-52.99,11.71-16.57,7.62-31.32,19.06-43.11,32.96-11.83,13.88-20.44,30.45-25.25,48.02-4.83,17.58-5.68,36.23-2.63,54.2,3.06,17.96,10.01,35.29,20.43,50.26,10.39,14.96,23.96,27.78,39.71,36.98,15.7,9.25,33.43,15.1,51.59,16.81,9.08.9,18.22.52,27.33.6h464.92v37.22h-480.39s-2.21-.06-2.21-.06l-4.41-.12c-2.94-.1-5.88-.39-8.82-.6-23.52-2.22-46.59-9.81-66.93-21.81-20.4-11.95-37.96-28.49-51.41-47.89-13.48-19.39-22.55-41.9-26.5-65.21-1.98-11.66-2.67-23.48-2.12-35.24.54-11.77,2.43-23.53,5.54-34.94,6.24-22.83,17.44-44.3,32.73-62.28,15.25-17.99,34.34-32.77,55.84-42.68,21.44-9.99,45.16-15.19,68.69-15.18v37.22Z"/>
    <path class="cls-3" d="M480,111.67c-12.95.01-25.66,2.84-37.28,8.23-11.65,5.33-22.05,13.44-30.38,23.23-4.18,4.89-7.78,10.26-10.75,15.94-2.98,5.68-5.33,11.66-7.02,17.83-1.68,6.17-2.72,12.52-3.01,18.97-.3,6.46.09,12.94,1.17,19.25,2.16,12.62,7,24.76,14.36,35.31,7.33,10.53,16.9,19.63,28,26.08,11.07,6.5,23.44,10.61,36.25,11.81,1.61.08,3.2.29,4.82.33l2.42.06,1.21.04c.17.01.49,0,.77,0h479.45v37.22h-464.92c-9.11-.08-18.25.3-27.33-.6-18.16-1.71-35.88-7.56-51.59-16.81-15.75-9.2-29.31-22.02-39.71-36.98-10.42-14.97-17.37-32.3-20.43-50.26-3.05-17.97-2.2-36.62,2.63-54.2,4.81-17.57,13.42-34.14,25.25-48.02,11.79-13.89,26.53-25.33,43.11-32.96,16.53-7.69,34.75-11.71,52.99-11.71v37.22Z"/>
    <path class="cls-2" d="M480,148.89c-7.66.03-14.86,1.66-21.58,4.76-6.73,3.04-12.78,7.81-17.65,13.51-2.44,2.84-4.54,5.97-6.24,9.25-1.71,3.28-3.07,6.72-4.04,10.26-.97,3.55-1.59,7.2-1.75,10.98-.17,3.81.06,7.63.69,11.26.62,3.65,1.63,7.19,3.01,10.6,1.37,3.42,3.12,6.71,5.27,9.76,4.27,6.1,9.85,11.47,16.3,15.18,6.43,3.75,13.46,6.12,20.9,6.82.94.02,1.87.18,2.82.19.48,0,.95,0,1.43.03l.71.03s.41,0,.68,0h479.45v37.22h-479.45c-.28,0-.6,0-.77,0l-1.21-.04-2.42-.06c-1.61-.04-3.21-.24-4.82-.33-12.8-1.2-25.18-5.32-36.25-11.81-11.1-6.46-20.67-15.55-28-26.08-7.36-10.55-12.19-22.7-14.36-35.31-1.08-6.31-1.46-12.79-1.17-19.25.29-6.45,1.33-12.8,3.01-18.97,1.69-6.17,4.04-12.15,7.02-17.83,2.96-5.68,6.57-11.05,10.75-15.94,8.33-9.79,18.73-17.9,30.38-23.23,11.63-5.39,24.34-8.22,37.28-8.23v37.22Z"/>
    <path class="cls-4" d="M480,37.22c23.53-.01,47.25,5.19,68.69,15.18,21.5,9.91,40.59,24.69,55.84,42.68,15.29,17.97,26.5,39.45,32.73,62.28,3.11,11.42,4.99,23.17,5.54,34.94.55,11.75-.14,23.57-2.12,35.24-3.95,23.31-13.02,45.82-26.5,65.21-13.45,19.39-31.01,35.94-51.41,47.89-20.34,12-43.41,19.59-66.93,21.81-2.94.21-5.88.51-8.82.6l-4.41.12-2.21.05h-1.8s-13.67,0-13.67,0h-27.35S0,363.21,0,363.21v37.22s437.57,0,437.57,0h27.35s13.67,0,13.67,0h1.88s2.7-.06,2.7-.06l5.41-.14c3.6-.12,7.22-.47,10.82-.74,28.88-2.73,57.29-12.05,82.27-26.8,25.06-14.7,46.61-34.96,63.12-58.79,16.54-23.81,27.73-51.49,32.58-80.15,2.43-14.34,3.28-28.83,2.6-43.23-.67-14.43-2.98-28.89-6.8-42.93-7.66-28.09-21.46-54.46-40.22-76.53-18.71-22.09-42.15-40.2-68.57-52.41-13.18-6.12-27.06-10.82-41.27-13.95C508.92,1.57,494.4,0,480,0v37.22Z"/>
    <path class="cls-1" d="M480,74.44c18.24,0,36.45,4.02,52.99,11.71,16.57,7.62,31.32,19.06,43.11,32.96,11.83,13.88,20.44,30.45,25.25,48.02,4.83,17.58,5.68,36.23,2.63,54.2-3.06,17.96-10.01,35.29-20.43,50.26-10.39,14.96-23.96,27.78-39.71,36.98-15.7,9.25-33.43,15.1-51.59,16.81-9.08.9-18.22.52-27.33.6h-27.35S0,325.99,0,325.99v37.22s437.57,0,437.57,0h27.35s13.67,0,13.67,0h1.8s2.21-.06,2.21-.06l4.41-.12c2.94-.1,5.88-.39,8.82-.6,23.52-2.22,46.59-9.81,66.93-21.81,20.4-11.95,37.96-28.49,51.41-47.89,13.48-19.39,22.55-41.9,26.5-65.21,1.98-11.66,2.67-23.48,2.12-35.24-.54-11.77-2.43-23.53-5.54-34.94-6.24-22.83-17.44-44.3-32.73-62.28-15.25-17.99-34.34-32.77-55.84-42.68-21.44-9.99-45.16-15.19-68.69-15.18v37.22Z"/>
    <path class="cls-3" d="M480,111.67c12.95.01,25.66,2.84,37.28,8.23,11.65,5.33,22.05,13.44,30.38,23.23,4.18,4.89,7.78,10.26,10.75,15.94,2.98,5.68,5.33,11.66,7.02,17.83,1.68,6.17,2.72,12.52,3.01,18.97.3,6.46-.09,12.94-1.17,19.25-2.16,12.62-7,24.76-14.36,35.31-7.33,10.53-16.9,19.63-28,26.08-11.07,6.5-23.44,10.61-36.25,11.81-1.61.08-3.2.29-4.82.33l-2.42.06-1.21.04c-.17.01-.49,0-.77,0h-.85s-13.67,0-13.67,0h-27.35S0,288.77,0,288.77v37.22s437.57,0,437.57,0h27.35c9.11-.08,18.25.3,27.33-.6,18.16-1.71,35.88-7.56,51.59-16.81,15.75-9.2,29.31-22.02,39.71-36.98,10.42-14.97,17.37-32.3,20.43-50.26,3.05-17.97,2.2-36.62-2.63-54.2-4.81-17.57-13.42-34.14-25.25-48.02-11.79-13.89-26.53-25.33-43.11-32.96-16.53-7.69-34.75-11.71-52.99-11.71v37.22Z"/>
    <path class="cls-2" d="M480,148.89c7.66.03,14.86,1.66,21.58,4.76,6.73,3.04,12.78,7.81,17.65,13.51,2.44,2.84,4.54,5.97,6.24,9.25,1.71,3.28,3.07,6.72,4.04,10.26.97,3.55,1.59,7.2,1.75,10.98.17,3.81-.06,7.63-.69,11.26-.62,3.65-1.63,7.19-3.01,10.6-1.37,3.42-3.12,6.71-5.27,9.76-4.27,6.1-9.85,11.47-16.3,15.18-6.43,3.75-13.46,6.12-20.9,6.82-.94.02-1.87.18-2.82.19-.48,0-.95,0-1.43.03l-.71.03s-.41,0-.68,0h-.85s-13.67,0-13.67,0h-27.35S0,251.54,0,251.54v37.22s437.57,0,437.57,0h27.35s13.67,0,13.67,0h.85c.28,0,.6,0,.77,0l1.21-.04,2.42-.06c1.61-.04,3.21-.24,4.82-.33,12.8-1.2,25.18-5.32,36.25-11.81,11.1-6.46,20.67-15.55,28-26.08,7.36-10.55,12.19-22.7,14.36-35.31,1.08-6.31,1.46-12.79,1.17-19.25-.29-6.45-1.33-12.8-3.01-18.97-1.69-6.17-4.04-12.15-7.02-17.83-2.96-5.68-6.57-11.05-10.75-15.94-8.33-9.79-18.73-17.9-30.38-23.23-11.63-5.39-24.34-8.22-37.28-8.23v37.22Z"/>
  </g>
</svg>