<?xml version="1.0" encoding="UTF-8"?>
<svg id="Layer_2" data-name="Layer 2" xmlns="http://www.w3.org/2000/svg" viewBox="0 0 960 604.02">
  <defs>
    <style>
      .cls-1 {
        fill: #d0234c;
      }

      .cls-2 {
        fill: #f66717;
      }

      .cls-3 {
        fill: #753c9e;
      }

      .cls-4 {
        fill: #f9f4e7;
      }
    </style>
  </defs>
  <g id="Artwork">
    <g>
      <path class="cls-3" d="M960,492.35h-315.79c-.85,0-1.53-.02-2.25-.04l-2.14-.06c-1.43-.05-2.86-.03-4.29-.14l-4.27-.33-2.14-.16-2.12-.27-4.25-.54c-1.41-.21-2.81-.5-4.21-.74-1.4-.27-2.82-.45-4.2-.81-2.77-.66-5.57-1.22-8.29-2.07-1.37-.4-2.75-.75-4.11-1.19l-4.05-1.37-2.02-.69-1.99-.79-3.98-1.56-3.9-1.76c-1.3-.58-2.61-1.15-3.86-1.83-10.19-5.11-19.83-11.38-28.46-18.89-1.07-.94-2.17-1.85-3.23-2.81l-3.1-2.96c-.51-.5-1.04-.98-1.55-1.48l-1.47-1.55-2.96-3.1-2.8-3.24-1.41-1.62c-.45-.55-.88-1.12-1.33-1.68l-2.65-3.37c-.86-1.14-1.66-2.32-2.49-3.48-13.21-18.64-21.56-40.59-24.15-63.27-.08-.71-.2-1.41-.26-2.12l-.16-2.14-.33-4.27c-.07-1.43-.07-2.86-.12-4.29l-.06-2.14-.03-1.08v-104.45c0-.4,0-.81-.01-1.28l-.06-2.71-.14-5.43-.39-5.42c-.2-3.62-.74-7.21-1.19-10.8-.19-1.8-.57-3.58-.87-5.37-.33-1.78-.62-3.57-.98-5.35-3.02-14.19-7.69-28.04-14.06-41.07-1.67-3.22-3.23-6.49-5.1-9.6-.91-1.57-1.79-3.15-2.73-4.7l-2.93-4.58-1.47-2.28-1.57-2.22-3.15-4.43-3.35-4.28-1.68-2.13c-.56-.71-1.18-1.38-1.76-2.07l-3.56-4.11c-1.2-1.35-2.48-2.64-3.72-3.96-2.45-2.67-5.13-5.11-7.74-7.62-1.3-1.26-2.71-2.4-4.07-3.6-1.39-1.17-2.7-2.41-4.15-3.51-2.85-2.24-5.66-4.52-8.65-6.57-5.85-4.28-12.09-8-18.41-11.55l-4.84-2.48-2.42-1.24-2.48-1.13-4.96-2.24c-1.67-.7-3.37-1.35-5.05-2.02-3.35-1.4-6.82-2.47-10.25-3.65-1.71-.61-3.48-1.03-5.22-1.55-1.75-.48-3.48-1.03-5.25-1.43-3.54-.79-7.05-1.73-10.63-2.29l-5.35-.95-5.39-.7c-3.59-.53-7.21-.71-10.82-1-1.8-.17-3.61-.15-5.42-.22l-5.39-.12H0v-37.22h330.36l6.46.14c2.19.08,4.37.07,6.56.27,4.38.34,8.75.58,13.11,1.21l6.54.85,6.5,1.15c4.34.71,8.61,1.81,12.91,2.79,2.14.5,4.25,1.15,6.37,1.74,2.11.62,4.25,1.16,6.33,1.88,4.17,1.41,8.37,2.75,12.45,4.43,2.05.81,4.1,1.6,6.13,2.46l6.02,2.71,3,1.38,2.94,1.49,5.87,3.02c7.68,4.28,15.23,8.82,22.33,13.99,3.62,2.49,7.04,5.25,10.49,7.97,1.74,1.33,3.36,2.83,5.03,4.25,1.64,1.45,3.34,2.84,4.93,4.37,3.18,3.03,6.41,6,9.39,9.23,1.51,1.6,3.05,3.16,4.51,4.8l4.32,4.97c.71.84,1.44,1.65,2.13,2.51l2.04,2.58,4.05,5.19,3.83,5.36,1.9,2.69,1.79,2.76,3.55,5.56c1.14,1.88,2.22,3.8,3.32,5.7,2.25,3.78,4.17,7.74,6.18,11.65,7.74,15.81,13.42,32.64,17.07,49.86.44,2.16.81,4.33,1.2,6.49.37,2.17.8,4.33,1.05,6.51.56,4.36,1.18,8.72,1.44,13.09.16,2.19.34,4.38.47,6.56l.18,6.56.07,3.28v.8s.01.61.01.61v104.45l.03.82.05,1.57c.04,1.05.03,2.1.08,3.15l.25,3.13.11,1.56c.04.52.14,1.03.2,1.55,1.9,16.54,7.93,32.46,17.6,46.08.61.84,1.19,1.71,1.81,2.55l1.94,2.46c.32.41.63.83.96,1.23l1.04,1.18,2.04,2.38,2.17,2.26,1.07,1.14c.37.37.76.72,1.14,1.08l2.26,2.17c.77.7,1.59,1.36,2.37,2.05,6.29,5.5,13.35,10.06,20.77,13.79.91.51,1.86.91,2.81,1.33l2.83,1.29,2.9,1.13,1.44.58,1.48.49,2.94,1.01c.99.32,2,.56,2.99.85,1.98.64,4.02,1.01,6.03,1.51,1,.28,2.04.39,3.06.59,1.02.17,2.04.39,3.07.55l3.1.38,1.55.21,1.56.11,3.13.25c1.04.09,2.1.05,3.15.09l1.57.05c.54.02.95.05,1.88.04h315.79v37.22Z"/>
      <path class="cls-1" d="M960,529.58h-315.79c-.77,0-1.71-.02-2.61-.04l-2.71-.07c-1.81-.06-3.62-.05-5.42-.19l-5.42-.41-2.71-.22-2.7-.34-5.39-.69c-1.79-.27-3.57-.62-5.36-.93-1.78-.34-3.58-.59-5.34-1.04-3.53-.82-7.08-1.57-10.56-2.63-1.74-.51-3.5-.97-5.22-1.52l-5.16-1.74-2.57-.88-2.53-.99-5.06-2-4.96-2.23c-1.65-.74-3.31-1.48-4.91-2.34-12.96-6.49-25.19-14.48-36.14-23.98-1.36-1.19-2.75-2.36-4.09-3.58l-3.93-3.75c-.65-.63-1.32-1.24-1.96-1.89l-1.88-1.96-3.75-3.94-3.56-4.1-1.78-2.06c-.58-.7-1.13-1.42-1.69-2.13l-3.35-4.27c-1.09-1.45-2.11-2.94-3.17-4.41-16.76-23.65-27.42-51.64-30.7-80.45-.11-.9-.24-1.8-.32-2.7l-.21-2.71-.41-5.42c-.09-1.81-.11-3.62-.16-5.42l-.07-2.71-.03-1.35v-104.45c0-.41,0-.81-.01-1.15l-.06-2.14-.1-4.29-.32-4.27c-.14-2.86-.59-5.68-.93-8.51-.14-1.42-.45-2.82-.69-4.22-.26-1.4-.48-2.81-.77-4.21-2.39-11.15-6.04-22.03-11.05-32.28-1.33-2.52-2.53-5.11-4.02-7.55-.72-1.23-1.41-2.48-2.14-3.7l-2.31-3.6-1.15-1.8-1.24-1.74-2.48-3.49-2.65-3.37-1.32-1.69c-.44-.56-.93-1.08-1.39-1.63l-2.8-3.24c-.95-1.07-1.96-2.07-2.94-3.11-1.92-2.12-4.05-4.02-6.1-6.01-1.02-1-2.15-1.88-3.21-2.83-1.1-.92-2.12-1.92-3.27-2.77-2.25-1.75-4.45-3.58-6.82-5.17-4.6-3.39-9.53-6.29-14.49-9.1l-3.81-1.95-1.9-.98-1.95-.88-3.9-1.77c-1.31-.55-2.65-1.05-3.97-1.58-2.63-1.11-5.36-1.93-8.05-2.87-1.34-.49-2.74-.8-4.1-1.21-1.38-.37-2.73-.82-4.12-1.13-2.79-.6-5.54-1.37-8.36-1.8l-4.21-.76-4.25-.54c-2.82-.44-5.68-.54-8.53-.79-1.42-.15-2.86-.11-4.28-.17l-4.32-.11H0v-37.22h330.36l5.39.12c1.81.07,3.62.04,5.42.22,3.61.29,7.23.47,10.82,1l5.39.7,5.35.95c3.58.57,7.09,1.5,10.63,2.29,1.77.4,3.5.96,5.25,1.43,1.74.52,3.5.94,5.22,1.55,3.43,1.18,6.9,2.25,10.25,3.65,1.68.67,3.38,1.32,5.05,2.02l4.96,2.24,2.48,1.13,2.42,1.24,4.84,2.48c6.32,3.54,12.56,7.26,18.41,11.55,2.99,2.05,5.8,4.34,8.65,6.57,1.45,1.09,2.76,2.34,4.15,3.51,1.35,1.2,2.77,2.34,4.07,3.6,2.61,2.51,5.29,4.95,7.74,7.62,1.24,1.32,2.52,2.6,3.72,3.96l3.56,4.11c.59.69,1.2,1.36,1.76,2.07l1.68,2.13,3.35,4.28,3.15,4.43,1.57,2.22,1.47,2.28,2.93,4.58c.94,1.55,1.82,3.13,2.73,4.7,1.87,3.11,3.43,6.39,5.1,9.6,6.38,13.03,11.05,26.89,14.06,41.07.36,1.78.66,3.57.98,5.35.3,1.79.68,3.56.87,5.37.45,3.6.98,7.18,1.19,10.8l.39,5.42.14,5.43.06,2.71c.01.47.02.88.01,1.28v104.45l.03,1.08.06,2.14c.04,1.43.05,2.86.12,4.29l.33,4.27.16,2.14c.06.71.18,1.42.26,2.12,2.59,22.67,10.94,44.63,24.15,63.27.84,1.16,1.64,2.34,2.49,3.48l2.65,3.37c.44.56.87,1.13,1.33,1.68l1.41,1.62,2.8,3.24,2.96,3.1,1.47,1.55c.5.51,1.03.99,1.55,1.48l3.1,2.96c1.05.96,2.16,1.87,3.23,2.81,8.62,7.5,18.26,13.77,28.46,18.89,1.25.68,2.56,1.25,3.86,1.83l3.9,1.76,3.98,1.56,1.99.79,2.02.69,4.05,1.37c1.36.43,2.74.78,4.11,1.19,2.72.85,5.52,1.41,8.29,2.07,1.38.36,2.8.54,4.2.81,1.41.24,2.8.53,4.21.74l4.25.54,2.12.27,2.14.16,4.27.33c1.42.11,2.86.09,4.29.14l2.14.06c.72.02,1.39.05,2.25.04h315.79v37.22Z"/>
      <path class="cls-2" d="M960,566.8h-315.79c-.69,0-1.9-.02-2.98-.04l-3.28-.08c-2.19-.07-4.37-.08-6.56-.23l-6.56-.49-3.28-.27-3.27-.4-6.54-.84c-2.17-.32-4.34-.74-6.5-1.12-2.16-.41-4.34-.74-6.48-1.26-4.29-.98-8.6-1.92-12.82-3.19-2.12-.61-4.24-1.18-6.34-1.85l-6.26-2.11-3.12-1.08-3.08-1.2-6.14-2.44c-2.02-.88-4.02-1.79-6.03-2.69-2.01-.91-4.01-1.81-5.96-2.84-15.74-7.87-30.55-17.57-43.82-29.07-1.65-1.44-3.33-2.86-4.95-4.34l-4.77-4.54c-.79-.76-1.59-1.51-2.36-2.29l-2.28-2.37-4.53-4.77-4.32-4.97-2.15-2.5c-.7-.85-1.37-1.71-2.05-2.57l-4.06-5.18c-1.32-1.75-2.57-3.56-3.85-5.35-20.31-28.66-33.28-62.69-37.25-97.63-.13-1.09-.28-2.18-.38-3.27l-.26-3.28-.49-6.56c-.11-2.19-.14-4.37-.21-6.56l-.07-3.28-.03-1.61v-105.47s-.07-1.57-.07-1.57l-.06-3.15-.25-3.13c-.08-2.1-.44-4.15-.67-6.22-.09-1.04-.34-2.05-.51-3.08-.19-1.02-.34-2.05-.55-3.07-1.76-8.11-4.39-16.02-8.05-23.49-.99-1.83-1.83-3.73-2.93-5.5l-1.55-2.71-1.7-2.62-.83-1.32-.92-1.27-1.8-2.56-1.94-2.46-.96-1.24c-.32-.41-.69-.79-1.02-1.18l-2.05-2.37c-.69-.78-1.45-1.51-2.16-2.27-1.39-1.56-2.97-2.93-4.46-4.4-.74-.74-1.58-1.37-2.35-2.07-.8-.66-1.54-1.42-2.39-2.03-1.66-1.27-3.25-2.63-4.99-3.78-3.35-2.5-6.97-4.58-10.57-6.65l-2.78-1.41-1.38-.72-1.42-.63-2.83-1.29c-.96-.4-1.93-.75-2.89-1.14-1.9-.83-3.91-1.39-5.85-2.09-.97-.37-1.99-.57-2.98-.87-1-.26-1.98-.62-3-.83-2.03-.41-4.02-1.02-6.09-1.3l-3.07-.56-3.1-.38c-2.05-.34-4.16-.38-6.24-.58-1.04-.13-2.1-.07-3.14-.12l-3.25-.09H0v-37.22h330.36l4.32.11c1.43.06,2.86.02,4.28.17,2.84.25,5.7.36,8.53.79l4.25.54,4.21.76c2.82.42,5.57,1.2,8.36,1.8,1.39.31,2.75.76,4.12,1.13,1.36.41,2.76.72,4.1,1.21,2.69.94,5.43,1.76,8.05,2.87,1.32.53,2.66,1.03,3.97,1.58l3.9,1.77,1.95.88,1.9.98,3.81,1.95c4.96,2.81,9.89,5.71,14.49,9.1,2.37,1.6,4.57,3.42,6.82,5.17,1.15.85,2.17,1.85,3.27,2.77,1.06.95,2.19,1.83,3.21,2.83,2.05,1.99,4.18,3.89,6.1,6.01.98,1.04,1.99,2.05,2.94,3.11l2.8,3.24c.46.54.95,1.07,1.39,1.63l1.32,1.69,2.65,3.37,2.48,3.49,1.24,1.74,1.15,1.8,2.31,3.6c.74,1.22,1.42,2.47,2.14,3.7,1.49,2.44,2.69,5.03,4.02,7.55,5.01,10.25,8.67,21.13,11.05,32.28.29,1.4.5,2.81.77,4.21.24,1.41.55,2.8.69,4.22.34,2.83.79,5.65.93,8.51l.32,4.27.1,4.29.06,2.14c.01.34.02.74.01,1.15v104.45l.03,1.35.07,2.71c.05,1.81.08,3.62.16,5.42l.41,5.42.21,2.71c.08.9.22,1.8.32,2.7,3.28,28.81,13.94,56.8,30.7,80.45,1.06,1.47,2.08,2.96,3.17,4.41l3.35,4.27c.56.71,1.11,1.43,1.69,2.13l1.78,2.06,3.56,4.1,3.75,3.94,1.88,1.96c.64.64,1.3,1.26,1.96,1.89l3.93,3.75c1.34,1.22,2.73,2.39,4.09,3.58,10.95,9.5,23.17,17.49,36.14,23.98,1.6.85,3.26,1.59,4.91,2.34l4.96,2.23,5.06,2,2.53.99,2.57.88,5.16,1.74c1.73.55,3.48,1.01,5.22,1.52,3.47,1.06,7.02,1.81,10.56,2.63,1.76.44,3.56.7,5.34,1.04,1.79.31,3.57.66,5.36.93l5.39.69,2.7.34,2.71.22,5.42.41c1.81.13,3.62.12,5.42.19l2.71.07c.9.02,1.84.05,2.61.04h315.79v37.22Z"/>
      <path class="cls-4" d="M960,604.02h-317.21s-1.93-.04-1.93-.04l-3.85-.09c-2.57-.08-5.13-.1-7.7-.28l-7.71-.57-3.85-.33-3.85-.46-7.68-1c-2.56-.38-5.1-.86-7.65-1.31-2.54-.48-5.1-.88-7.62-1.49-5.05-1.15-10.11-2.27-15.08-3.75-2.49-.72-4.99-1.4-7.46-2.18l-7.37-2.48-3.67-1.28-3.62-1.4-7.22-2.87c-2.38-1.03-4.73-2.1-7.09-3.16-2.36-1.07-4.71-2.14-7.01-3.34-18.51-9.25-35.9-20.67-51.5-34.17-1.95-1.69-3.91-3.37-5.81-5.1l-5.61-5.32c-.93-.9-1.86-1.78-2.77-2.69l-2.68-2.78-5.32-5.61-5.08-5.83-2.52-2.94c-.82-.99-1.61-2.01-2.42-3.02l-4.77-6.09c-1.55-2.06-3.03-4.18-4.53-6.28-23.86-33.67-39.14-73.73-43.8-114.81-.15-1.28-.33-2.56-.44-3.85l-.32-3.85-.56-7.71c-.13-2.57-.18-5.13-.25-7.7l-.08-3.85-.03-1.87v-105.35s-.06-1.01-.06-1.01c-.02-.67-.03-1.34-.03-2.01l-.17-1.98c-.02-1.33-.3-2.62-.42-3.93-.03-.66-.22-1.29-.32-1.93-.13-.64-.2-1.29-.33-1.93-1.13-5.07-2.75-10.01-5.04-14.69-.65-1.13-1.13-2.35-1.85-3.45l-.97-1.71c-.37-.54-.73-1.09-1.08-1.65l-.51-.84-.59-.79c-.39-.53-.76-1.07-1.13-1.62-.42-.51-.84-1.02-1.24-1.54l-.6-.79c-.2-.26-.44-.49-.66-.74-.44-.49-.87-1-1.29-1.51-.43-.5-.93-.94-1.37-1.43-.86-1.01-1.9-1.84-2.82-2.79-.45-.48-1.01-.85-1.49-1.3-.51-.41-.95-.92-1.5-1.29-1.06-.78-2.04-1.68-3.16-2.38-2.1-1.6-4.4-2.86-6.65-4.2-.59-.28-1.17-.57-1.75-.87l-.86-.47-.9-.38c-.6-.26-1.19-.53-1.77-.82l-1.82-.7c-1.18-.55-2.45-.85-3.66-1.32-.6-.25-1.25-.34-1.87-.54-.63-.16-1.23-.41-1.87-.53-1.28-.22-2.51-.66-3.81-.81-.64-.11-1.28-.23-1.92-.37-.65-.07-1.31-.13-1.96-.22-1.29-.25-2.63-.22-3.94-.38-.65-.1-1.34-.03-2-.07l-2.18-.08H0v-18.61h330.36l2.72.08c.86.04,1.73-.02,2.57.09,1.7.18,3.42.18,5.09.48l2.53.3c.83.17,1.66.32,2.49.47,1.68.21,3.29.74,4.95,1.05.83.17,1.62.47,2.43.68.8.25,1.64.4,2.43.71,1.58.59,3.21,1.01,4.76,1.71l2.36.92c.76.36,1.53.72,2.3,1.06l1.16.51,1.12.6c.75.39,1.5.77,2.27,1.14,2.92,1.7,5.89,3.37,8.61,5.42,1.43.93,2.71,2.05,4.07,3.08.7.49,1.29,1.12,1.95,1.66.63.57,1.33,1.07,1.92,1.69,1.2,1.21,2.51,2.31,3.64,3.6.58.63,1.2,1.21,1.77,1.85.55.65,1.1,1.3,1.67,1.94.28.32.58.63.84.96l.78,1.01,1.59,2c.48.7.97,1.4,1.46,2.09l.75,1.03.67,1.08c.45.72.91,1.43,1.39,2.14l1.26,2.21c.92,1.43,1.57,3,2.39,4.48,2.97,6.08,5.1,12.5,6.54,19.09.17.83.28,1.67.44,2.5.14.83.36,1.65.42,2.5.18,1.69.49,3.36.55,5.07l.21,2.55c0,.86.02,1.72.05,2.58l.05,1.29v.35s.01.61.01.61v104.45l.03,1.74.08,3.57c.07,2.38.11,4.75.23,7.13l.53,7.14.29,3.57c.11,1.19.27,2.37.41,3.56,4.32,38.01,18.44,75.06,40.53,106.22,1.39,1.94,2.76,3.9,4.19,5.81l4.41,5.64c.74.93,1.48,1.88,2.24,2.8l2.33,2.72,4.7,5.4,4.92,5.19,2.48,2.58c.84.85,1.71,1.66,2.57,2.49l5.19,4.93c1.76,1.61,3.58,3.15,5.38,4.72,14.44,12.5,30.54,23.06,47.66,31.62,2.12,1.11,4.3,2.1,6.48,3.09,2.18.99,4.36,1.98,6.56,2.93l6.68,2.65,3.35,1.3,3.4,1.18,6.81,2.29c2.28.73,4.6,1.35,6.9,2.02,4.6,1.37,9.28,2.4,13.95,3.47,2.33.56,4.69.94,7.05,1.38,2.36.41,4.71.86,7.08,1.21l7.11.92,3.56.43,3.56.3,7.14.53c2.38.17,4.75.18,7.13.26l3.57.08,1.78.03h1.38s4.86,0,4.86,0h310.93v18.61Z"/>
      <path class="cls-4" d="M960,436.52h-316.68s-.16,0-.16,0l-.65-.03-1.29-.04c-.86-.04-1.73,0-2.58-.07-.85-.08-1.7-.15-2.55-.21l-1.28-.08-1.26-.18c-.84-.11-1.68-.22-2.53-.31-.84-.12-1.66-.32-2.5-.45-.83-.16-1.68-.23-2.49-.47-1.63-.41-3.3-.7-4.9-1.23-.81-.24-1.63-.43-2.43-.69-.79-.29-1.59-.56-2.39-.82l-1.2-.39-1.17-.48c-.78-.31-1.57-.62-2.36-.91l-2.3-1.06c-.77-.34-1.55-.66-2.29-1.08-6.03-3.04-11.8-6.74-16.93-11.24-.64-.57-1.31-1.1-1.94-1.67-.61-.6-1.22-1.19-1.84-1.78-.31-.29-.63-.57-.93-.88l-.87-.94c-.58-.62-1.18-1.23-1.78-1.84-.54-.66-1.1-1.31-1.66-1.95l-.85-.96c-.27-.33-.52-.68-.78-1.01-.52-.67-1.05-1.34-1.59-2-.51-.68-.97-1.4-1.47-2.08-3.98-5.52-7.1-11.59-9.53-17.87-.15-.39-.33-.78-.47-1.17l-.39-1.2c-.26-.8-.54-1.59-.83-2.39l-.67-2.44c-.24-.81-.5-1.61-.65-2.44-.18-.82-.37-1.64-.58-2.46-.22-.81-.29-1.67-.46-2.49-.13-.84-.35-1.65-.44-2.5-.09-.84-.2-1.69-.31-2.53-.05-.42-.13-.84-.17-1.26l-.08-1.28c-.06-.85-.13-1.7-.21-2.55-.04-.86-.02-1.72-.06-2.58l-.04-1.29-.03-.69v-105.92s-.09-3.57-.09-3.57l-.2-7.13c-.14-2.38-.33-4.76-.51-7.14-.3-4.76-.96-9.5-1.57-14.24-.28-2.37-.74-4.73-1.14-7.08-.43-2.36-.83-4.72-1.31-7.06-3.96-18.74-10.16-37.06-18.57-54.26-2.18-4.26-4.29-8.56-6.73-12.68-1.2-2.07-2.37-4.15-3.61-6.2l-3.86-6.04-1.95-3-2.06-2.93-4.17-5.83c-1.45-1.9-2.93-3.77-4.4-5.65l-2.22-2.81c-.75-.93-1.54-1.82-2.31-2.73l-4.7-5.4c-1.59-1.78-3.26-3.48-4.9-5.22-3.25-3.5-6.75-6.74-10.21-10.03-1.72-1.65-3.57-3.17-5.36-4.75-1.82-1.54-3.58-3.16-5.47-4.62-3.74-2.96-7.47-5.95-11.4-8.67-7.72-5.62-15.93-10.57-24.29-15.22l-6.38-3.29-3.2-1.62-3.26-1.5-6.55-2.95c-2.21-.93-4.44-1.79-6.67-2.68-4.43-1.82-9-3.28-13.54-4.81-2.27-.78-4.59-1.37-6.89-2.05-2.31-.64-4.6-1.34-6.94-1.89-4.67-1.07-9.32-2.26-14.04-3.04l-7.07-1.24-7.11-.93c-4.74-.67-9.5-.95-14.26-1.31-2.38-.21-4.75-.21-7.13-.29l-7-.15H0V0h330.36l7.53.15c2.57.09,5.13.1,7.7.32,5.14.38,10.28.7,15.4,1.41,2.56.32,5.12.65,7.68,1.01l7.64,1.34c5.1.85,10.13,2.12,15.18,3.28,2.52.59,5,1.35,7.5,2.04,2.49.73,5,1.38,7.45,2.22,4.91,1.65,9.85,3.24,14.64,5.2,2.41.95,4.82,1.89,7.21,2.9l7.08,3.18,3.53,1.62,3.46,1.75,6.9,3.56c9.04,5.01,17.9,10.37,26.25,16.44,4.25,2.94,8.28,6.16,12.32,9.37,2.04,1.58,3.95,3.32,5.91,4.98,1.93,1.7,3.92,3.35,5.78,5.13,3.74,3.55,7.52,7.06,11.03,10.83,1.77,1.87,3.57,3.72,5.29,5.64l5.07,5.84c.83.98,1.69,1.95,2.5,2.95l2.41,3.03c1.6,2.03,3.19,4.05,4.75,6.1l4.5,6.3,2.22,3.17,2.11,3.25,4.17,6.53c1.34,2.21,2.62,4.46,3.91,6.7,2.63,4.45,4.92,9.1,7.27,13.71,9.1,18.59,15.8,38.39,20.08,58.66.52,2.53.96,5.08,1.42,7.63.44,2.55.93,5.09,1.24,7.66.67,5.12,1.37,10.25,1.7,15.39.19,2.57.39,5.14.54,7.71l.22,7.7.08,3.85v1.54s.01,1.21.01,1.21v103.24l.03.56.04,1.01.03,2.01c.07.66.13,1.32.17,1.98l.05.99c.02.33.1.65.14.98.09.65.17,1.3.24,1.95.05.66.25,1.28.34,1.93.14.64.17,1.3.35,1.92.16.63.31,1.26.45,1.9.1.64.31,1.26.5,1.88.18.62.35,1.25.51,1.88.23.61.45,1.22.65,1.83l.29.93c.1.31.25.6.37.9,1.88,4.83,4.26,9.52,7.36,13.79.39.53.74,1.09,1.14,1.62.42.51.84,1.02,1.24,1.55.2.26.39.53.6.79l.67.74c.44.49.86,1,1.28,1.51.47.46.94.94,1.39,1.42l.67.73c.23.23.49.45.73.67.49.45.96.91,1.43,1.38.49.45,1.02.85,1.51,1.29,3.97,3.5,8.45,6.34,13.09,8.7.56.34,1.17.57,1.77.83.6.26,1.18.55,1.77.82.61.22,1.22.45,1.82.69l.9.38.93.29c.62.2,1.23.41,1.84.64.62.2,1.25.33,1.87.52,1.23.43,2.52.62,3.77.95.62.2,1.28.23,1.92.36.64.1,1.28.26,1.92.36.65.06,1.31.14,1.96.23l.97.15.99.06c.66.04,1.32.09,1.98.16.66.07,1.34.01,2.01.05l1.01.04.5.03h.13s.27,0,.27,0h316.4v18.61Z"/>
    </g>
  </g>
</svg>