<?xml version="1.0" encoding="UTF-8"?>
<svg id="Layer_2" data-name="Layer 2" xmlns="http://www.w3.org/2000/svg" viewBox="0 0 960 441.29">
  <defs>
    <style>
      .cls-1 {
        fill: #d0234c;
      }

      .cls-2 {
        fill: #f66717;
      }

      .cls-3 {
        fill: #753c9e;
      }

      .cls-4 {
        fill: #f9f4e7;
      }
    </style>
  </defs>
  <g id="Artwork">
    <g>
      <path class="cls-3" d="M0,404.07h361.48c7.96-.04,16.01-.67,23.94-1.94,7.95-1.24,15.78-3.26,23.41-5.79,15.3-5.06,29.65-12.78,42.47-22.44,12.79-9.71,23.98-21.48,33.06-34.73,9.01-13.29,16.02-28.02,20.3-43.55,2.15-7.75,3.78-15.67,4.61-23.66.28-1.99.36-4,.53-5.99l.21-3,.09-3,.07-3,.03-1.5v-1.15s0-4.52,0-4.52v-64.22s.04-.76.04-.76l.04-1.52c0-1.01.08-2.02.17-3.02.53-8.04,2.54-15.86,5.58-23.26,6.26-14.71,17.45-27.51,31.41-35.45,6.93-4.06,14.52-6.83,22.35-8.45,3.92-.8,7.93-1.2,11.96-1.37l3.2-.08h375.04v37.22h-375.04l-1.88.05c-2.05.1-4.05.28-5.99.68-3.86.83-7.6,2.14-11.04,4.19-6.98,3.92-12.63,10.48-15.73,17.72-1.45,3.67-2.5,7.46-2.74,11.52-.05.5-.11,1.01-.09,1.53l-.02.77-.02.39c0,.08-.01.09-.01.23v69.51s-.03,1.87-.03,1.87l-.09,3.74-.12,3.74-.26,3.75c-.21,2.5-.33,5-.67,7.49-1.05,9.98-3.07,19.9-5.77,29.6-5.38,19.44-14.13,37.89-25.41,54.49-11.35,16.57-25.32,31.26-41.3,43.39-16.01,12.08-33.98,21.72-53.12,28.07-9.56,3.18-19.37,5.69-29.31,7.25-9.92,1.59-19.99,2.37-29.89,2.41H0v-37.22Z"/>
      <path class="cls-1" d="M0,366.85h361.48c6.03-.04,12.04-.52,18-1.46,5.96-.91,11.81-2.45,17.52-4.34,11.45-3.77,22.19-9.57,31.82-16.81,9.6-7.29,18-16.13,24.82-26.07,6.74-9.97,12.01-20.99,15.2-32.62,1.6-5.8,2.85-11.72,3.46-17.72.66-5.99.75-12.02.71-18.05v-54.22c.02-6.02-.13-12.06.35-18.06.82-12.03,3.8-23.87,8.41-34.99,9.42-22.18,26.14-41.22,47.09-53.19,10.41-6.08,21.87-10.3,33.67-12.71,5.91-1.19,11.92-1.83,17.93-2.07,1.51-.03,3.01-.09,4.52-.1h375.04v37.22h-375.04l-3.2.08c-4.03.17-8.04.58-11.96,1.37-7.83,1.62-15.43,4.39-22.35,8.45-13.96,7.94-25.15,20.75-31.41,35.45-3.03,7.4-5.05,15.21-5.58,23.26-.08,1-.18,2.01-.17,3.02l-.04,1.52-.02.76v.4s-.01.56-.01.56v68.93s-.03,1.5-.03,1.5l-.07,3-.09,3-.21,3c-.17,2-.25,4-.53,5.99-.83,7.99-2.47,15.91-4.61,23.66-4.29,15.53-11.3,30.27-20.3,43.55-9.08,13.25-20.27,25.02-33.06,34.73-12.82,9.66-27.17,17.38-42.47,22.44-7.64,2.54-15.47,4.56-23.41,5.79-7.93,1.26-15.98,1.9-23.94,1.94H0v-37.22Z"/>
      <path class="cls-2" d="M0,329.63h361.48c4.09-.04,8.08-.36,12.05-.98,3.97-.59,7.84-1.64,11.63-2.88,7.6-2.48,14.73-6.37,21.16-11.18,6.4-4.86,12.02-10.79,16.57-17.41,4.48-6.66,8-13.96,10.1-21.68,1.05-3.85,1.91-7.77,2.3-11.78.17-.99.16-2.01.26-3.01l.12-1.51.03-1.52.04-1.52.03-.76v-1.11s0-4.52,0-4.52v-64.55s.05-1.5.05-1.5l.08-3c.02-2,.17-4,.33-6,1.11-16.01,5.06-31.87,11.25-46.72,12.58-29.66,34.84-54.94,62.77-70.93,13.9-8.09,29.21-13.77,44.98-16.97,7.89-1.59,15.91-2.46,23.9-2.77l3-.08,1.5-.03,1.34-.02h375.04v37.22h-375.04c-1.51.01-3.01.07-4.52.1-6.02.24-12.03.88-17.93,2.07-11.8,2.41-23.25,6.63-33.67,12.71-20.94,11.97-37.67,31.01-47.09,53.19-4.61,11.12-7.59,22.96-8.41,34.99-.48,6.01-.32,12.04-.35,18.06v54.22c.04,6.02-.05,12.06-.71,18.05-.61,6-1.86,11.91-3.46,17.72-3.19,11.63-8.46,22.64-15.2,32.62-6.82,9.94-15.22,18.78-24.82,26.07-9.62,7.24-20.37,13.04-31.82,16.81-5.72,1.89-11.56,3.42-17.52,4.34-5.95.94-11.97,1.42-18,1.46H0v-37.22Z"/>
      <path class="cls-4" d="M0,292.4h361.48c2.15-.04,4.12-.21,6.1-.5,1.98-.27,3.87-.83,5.74-1.43,3.75-1.19,7.27-3.16,10.51-5.55,3.21-2.44,6.04-5.44,8.33-8.74,2.21-3.35,4-6.93,5-10.74.5-1.9.98-3.82,1.14-5.83.11-.49.06-1.01.12-1.51l.08-.76v-.78s.02-.77.02-.77l.02-.39v-1.09s0-4.52,0-4.52v-64.72s.05-1.87.05-1.87l.09-3.74c.04-2.49.22-4.99.41-7.49,1.41-19.99,6.31-39.88,14.09-58.45,15.74-37.14,43.54-68.66,78.44-88.67,17.38-10.11,36.55-17.24,56.29-21.23,9.88-1.99,19.89-3.09,29.88-3.47l3.74-.09,1.87-.04,1.54-.02h375.04v37.22h-375.04l-1.34.02-1.5.03-3,.08c-8,.31-16.01,1.18-23.9,2.77-15.77,3.2-31.08,8.88-44.98,16.97-27.93,15.99-50.19,41.27-62.77,70.93-6.19,14.85-10.14,30.71-11.25,46.72-.16,2-.31,4-.33,6l-.08,3-.03,1.5v.73s-.01.56-.01.56v68.89s-.03.76-.03.76l-.04,1.52-.03,1.52-.12,1.51c-.1,1-.09,2.02-.26,3.01-.39,4-1.25,7.92-2.3,11.78-2.1,7.72-5.62,15.02-10.1,21.68-4.55,6.62-10.17,12.54-16.57,17.41-6.43,4.81-13.56,8.7-21.16,11.18-3.79,1.25-7.66,2.29-11.63,2.88-3.97.62-7.96.94-12.05.98H0v-37.22Z"/>
    </g>
  </g>
</svg>