<svg xmlns="http://www.w3.org/2000/svg" xmlns:xlink="http://www.w3.org/1999/xlink" id="Layer_2" viewBox="0 0 264.01 264">
  <defs>
    <path id="reuse-0" d="M0 0h264.01v264H0z" class="cls-1"/>
  </defs>
  <defs>
    <clipPath id="clippath">
      <use xlink:href="#reuse-0" class="cls-1"/>
    </clipPath>
    <clipPath id="clippath-1">
      <use xlink:href="#reuse-0" class="cls-1"/>
    </clipPath>
    <clipPath id="clippath-2">
      <path d="M220.29 97.13c-6.38 8.9-4.16 21.31 4.91 27.45 5.34 3.62 10.25 6.94 14.6 9.89.01 0 0 0 .02-.01.25-11.58-1.3-22.69-4.46-33.17l-10.07-5.34c-.58-.31-1.21-.45-1.83-.45-1.23 0-2.42.58-3.18 1.63m-71.55-39.77c-5.55 3.76-5.55 11.93.02 15.67 14.48 9.7 37.72 25.25 41.36 27.73 4.66-5.5 9.27-10.94 13.69-16.2l-51.87-27.38c-.46-.24-.96-.36-1.46-.36-.61 0-1.22.18-1.75.54M89.86 32.73c8.55 5.8 18.83 12.73 29.95 20.33 4.13-2.21 8.19-4.31 12.2-6.46L99.19 29.26c-3.16 1.02-6.27 2.21-9.32 3.47" class="cls-1"/>
    </clipPath>
    <clipPath id="clippath-3">
      <path d="M149.05 112.99c-5.86 5.81-5.87 15.27 0 21.07 19.47 19.24 59.23 58.48 66.71 65.88 5.98-7.35 11.06-15.54 14.89-24.39l-76.85-62.78c-.66-.54-1.45-.8-2.24-.8-.91 0-1.81.35-2.5 1.03M63.14 49.11c4.3 4.24 51.05 50.51 56.55 55.9 4.12-3.35 8.25-6.7 12.37-9.98L69.71 44.1c-2.27 1.56-4.42 3.23-6.57 5.02" class="cls-1"/>
    </clipPath>
    <clipPath id="clippath-4">
      <use xlink:href="#reuse-0" class="cls-1"/>
    </clipPath>
    <clipPath id="clippath-5">
      <path d="M149.09 196.72c-6.89 9.65-6.89 22.61 0 32.26l5.94 8.32c9.38-1.97 18.29-5.26 26.54-9.56l-26.51-31.26c-.76-.9-1.82-1.34-2.89-1.34-1.17 0-2.33.53-3.08 1.59M76.3 106.89c-5.43 3.71-6.74 11.15-2.9 16.49l44.75 62.32c4.48-5.32 9.14-10.82 13.87-16.44l-52.45-61.93c-.48-.57-1.17-.87-1.87-.87-.48 0-.96.14-1.38.43M39.83 76.13l9.92 13.93c3.41-1.79 6.88-3.65 10.46-5.56L45.74 67.4c-2.1 2.81-4.06 5.74-5.92 8.73" class="cls-1"/>
    </clipPath>
    <linearGradient id="linear-gradient" x1="-727.44" x2="-726.44" y1="-773.01" y2="-773.01" gradientTransform="matrix(0 254.91 254.91 0 197210.21 185431.21)" gradientUnits="userSpaceOnUse">
      <stop offset="0" stop-color="#753d9e"/>
      <stop offset=".24" stop-color="#d0244c"/>
      <stop offset=".43" stop-color="#f66718"/>
      <stop offset=".76" stop-color="#faf4e7"/>
      <stop offset="1" stop-color="#faf4e7"/>
    </linearGradient>
    <linearGradient xlink:href="#linear-gradient" id="linear-gradient-2" x1="-727.84" x2="-726.84" y1="-771.98" y2="-771.98" gradientTransform="matrix(0 296.52 296.52 0 229051.31 215836.52)"/>
    <linearGradient xlink:href="#linear-gradient" id="linear-gradient-3" x1="-727.72" x2="-726.72" y1="-771.2" y2="-771.2" gradientTransform="matrix(0 296.05 296.05 0 228428.08 215487.91)"/>
    <style>
      .cls-1{fill:none}.cls-12{fill:#faf4e7}
    </style>
  </defs>
  <g id="Layer_1-2" data-name="Layer_1">
    <g id="Logo_Mark_Inverted_Colour" clip-path="url(#clippath)">
      <g clip-path="url(#clippath-1)">
        <path d="M132.01 264C59.22 264 0 204.78 0 132S59.22 0 132.01 0s132 59.21 132 132-59.22 132-132 132m0-252.78C65.4 11.22 11.22 65.4 11.22 132S65.4 252.78 132.01 252.78 252.79 198.6 252.79 132 198.61 11.22 132.01 11.22" class="cls-12"/>
        <path fill="#fff" d="M98.71 84.32c-.06-.06-.12-.18-.24-.24h.06c.06.06.12.12.18.24"/>
        <path d="m76.55 172.03-28.24 27.9c-5.98-7.35-11.06-15.54-14.89-24.39 9.65-7.91 22.63-18.52 37.31-30.54 2.49-2.04 6.19-1.55 8.06 1.06 5.73 8.03 4.78 19.03-2.24 25.96m72.64-88.22c-1.11-.76-2.57-.71-3.62.14-9.15 7.44-43.24 35.27-50.75 41.39l13.21 15.61 42.53-42.08c4.38-4.33 3.72-11.59-1.37-15.06m45.23-39.71C186.47 50.6 177.5 57.9 168 65.67l10.58 5.56 22.36-22.12c-2.09-1.79-4.24-3.41-6.51-5.02" class="cls-12"/>
        <path fill="#001828" d="M98.71 84.32c-.06-.06-.12-.18-.24-.24h.06c.06.06.12.12.18.24"/>
        <path d="m155.18 172.77-46.07 64.52c-9.38-1.97-18.29-5.2-26.54-9.56 8.83-10.4 52.14-61.61 64.75-76.58 1.54-1.83 4.31-1.95 6.01-.27 5.9 5.86 6.68 15.12 1.85 21.89M218.33 67.4c-4.61 5.5-42.09 49.62-49.14 57.93l12.56 10.28 42.51-59.48c-1.86-2.99-3.83-5.92-5.92-8.73" class="cls-12"/>
      </g>
      <g clip-path="url(#clippath-2)">
        <path fill="url(#linear-gradient)" d="M81.07-9.63h167.8v182.99H81.07z" transform="rotate(-58.81 164.98786006 81.8679561)"/>
      </g>
      <g clip-path="url(#clippath-3)">
        <path fill="url(#linear-gradient-2)" d="M33.03 7.65h227.73v228.72H33.03z" transform="rotate(-48.46 146.89568615 122.00900072)"/>
      </g>
      <g clip-path="url(#clippath-4)">
        <path d="m174.15 32.73-64.62 43.88-13.45-11c8.01-4.24 59.18-31.26 68.81-36.29 3.17.96 6.28 2.15 9.27 3.41M78.76 77.2c-.97-.96-2.45-1.18-3.65-.54-9.51 5.03-40.42 21.34-46.4 24.51-3.15 10.48-4.71 21.72-4.46 33.28.02.01.01 0 .04.02l52.5-35.65c7.33-4.97 8.28-15.41 1.98-21.63" class="cls-12"/>
      </g>
      <g clip-path="url(#clippath-5)">
        <path fill="url(#linear-gradient-3)" d="M2.49 41.77H218.9v221.16H2.49z" transform="rotate(-38.15 110.6812175 152.33691839)"/>
      </g>
    </g>
  </g>
</svg>